<mxfile host="app.diagrams.net" modified="2023-07-26T15:45:45.626Z" agent="Mozilla/5.0 (Windows NT 10.0; Win64; x64) AppleWebKit/537.36 (KHTML, like Gecko) Chrome/115.0.0.0 Safari/537.36 Edg/115.0.1901.183" etag="tIu1GQmkYY6bIQ_qPdV5" version="21.6.5" type="github">
  <diagram name="第 1 页" id="nujMItkQvAbVNNYGcNMh">
    <mxGraphModel dx="1166" dy="775" grid="1" gridSize="10" guides="1" tooltips="1" connect="1" arrows="1" fold="1" page="1" pageScale="1" pageWidth="827" pageHeight="1169" math="0" shadow="0">
      <root>
        <mxCell id="0" />
        <mxCell id="1" parent="0" />
        <mxCell id="LWc6yBgg0FcKB93T4zAy-1" value="avaliableAmtFacility" style="swimlane;fontStyle=1;align=center;verticalAlign=top;childLayout=stackLayout;horizontal=1;startSize=26;horizontalStack=0;resizeParent=1;resizeParentMax=0;resizeLast=0;collapsible=1;marginBottom=0;whiteSpace=wrap;html=1;" vertex="1" parent="1">
          <mxGeometry x="70" y="260" width="290" height="110" as="geometry" />
        </mxCell>
        <mxCell id="LWc6yBgg0FcKB93T4zAy-3" value="" style="line;strokeWidth=1;fillColor=none;align=left;verticalAlign=middle;spacingTop=-1;spacingLeft=3;spacingRight=3;rotatable=0;labelPosition=right;points=[];portConstraint=eastwest;strokeColor=inherit;" vertex="1" parent="LWc6yBgg0FcKB93T4zAy-1">
          <mxGeometry y="26" width="290" height="34" as="geometry" />
        </mxCell>
        <mxCell id="LWc6yBgg0FcKB93T4zAy-4" value="+ getSharedCredit(String ecifNo): SharedCredit&lt;br&gt;+ caclAvaliableAmt(String ecifNo): AvailableAmt&lt;br&gt;+ getLevelToCreditTable(): Map&amp;lt;Integer, Decimal&amp;gt;" style="text;strokeColor=none;fillColor=none;align=left;verticalAlign=top;spacingLeft=4;spacingRight=4;overflow=hidden;rotatable=0;points=[[0,0.5],[1,0.5]];portConstraint=eastwest;whiteSpace=wrap;html=1;" vertex="1" parent="LWc6yBgg0FcKB93T4zAy-1">
          <mxGeometry y="60" width="290" height="50" as="geometry" />
        </mxCell>
        <mxCell id="LWc6yBgg0FcKB93T4zAy-5" value="SharedCredit" style="swimlane;fontStyle=1;align=center;verticalAlign=top;childLayout=stackLayout;horizontal=1;startSize=26;horizontalStack=0;resizeParent=1;resizeParentMax=0;resizeLast=0;collapsible=1;marginBottom=0;whiteSpace=wrap;html=1;" vertex="1" parent="1">
          <mxGeometry x="50" y="110" width="240" height="90" as="geometry" />
        </mxCell>
        <mxCell id="LWc6yBgg0FcKB93T4zAy-6" value="- ecifNo: String&lt;br&gt;- sharedCredit: decimal" style="text;strokeColor=none;fillColor=none;align=left;verticalAlign=top;spacingLeft=4;spacingRight=4;overflow=hidden;rotatable=0;points=[[0,0.5],[1,0.5]];portConstraint=eastwest;whiteSpace=wrap;html=1;" vertex="1" parent="LWc6yBgg0FcKB93T4zAy-5">
          <mxGeometry y="26" width="240" height="34" as="geometry" />
        </mxCell>
        <mxCell id="LWc6yBgg0FcKB93T4zAy-7" value="" style="line;strokeWidth=1;fillColor=none;align=left;verticalAlign=middle;spacingTop=-1;spacingLeft=3;spacingRight=3;rotatable=0;labelPosition=right;points=[];portConstraint=eastwest;strokeColor=inherit;" vertex="1" parent="LWc6yBgg0FcKB93T4zAy-5">
          <mxGeometry y="60" width="240" height="8" as="geometry" />
        </mxCell>
        <mxCell id="LWc6yBgg0FcKB93T4zAy-8" value="+ getSharedCredit(String ecifNo): decimal&lt;br&gt;" style="text;strokeColor=none;fillColor=none;align=left;verticalAlign=top;spacingLeft=4;spacingRight=4;overflow=hidden;rotatable=0;points=[[0,0.5],[1,0.5]];portConstraint=eastwest;whiteSpace=wrap;html=1;" vertex="1" parent="LWc6yBgg0FcKB93T4zAy-5">
          <mxGeometry y="68" width="240" height="22" as="geometry" />
        </mxCell>
        <mxCell id="LWc6yBgg0FcKB93T4zAy-9" value="" style="endArrow=open;endFill=1;endSize=12;html=1;rounded=0;entryX=0.501;entryY=0.96;entryDx=0;entryDy=0;entryPerimeter=0;exitX=0.5;exitY=0;exitDx=0;exitDy=0;" edge="1" parent="1" source="LWc6yBgg0FcKB93T4zAy-1" target="LWc6yBgg0FcKB93T4zAy-8">
          <mxGeometry width="160" relative="1" as="geometry">
            <mxPoint x="-60" y="230" as="sourcePoint" />
            <mxPoint x="100" y="230" as="targetPoint" />
          </mxGeometry>
        </mxCell>
        <mxCell id="LWc6yBgg0FcKB93T4zAy-14" value="creditLevelEvaluate" style="swimlane;fontStyle=1;align=center;verticalAlign=top;childLayout=stackLayout;horizontal=1;startSize=26;horizontalStack=0;resizeParent=1;resizeParentMax=0;resizeLast=0;collapsible=1;marginBottom=0;whiteSpace=wrap;html=1;" vertex="1" parent="1">
          <mxGeometry x="436" y="260" width="360" height="90" as="geometry" />
        </mxCell>
        <mxCell id="LWc6yBgg0FcKB93T4zAy-16" value="" style="line;strokeWidth=1;fillColor=none;align=left;verticalAlign=middle;spacingTop=-1;spacingLeft=3;spacingRight=3;rotatable=0;labelPosition=right;points=[];portConstraint=eastwest;strokeColor=inherit;" vertex="1" parent="LWc6yBgg0FcKB93T4zAy-14">
          <mxGeometry y="26" width="360" height="24" as="geometry" />
        </mxCell>
        <mxCell id="LWc6yBgg0FcKB93T4zAy-17" value="+ getCreditModelByEcifNo(String ecifNo): CreditRatingModel&lt;br&gt;+ evaluateCreditLevel(CreditRatingModel model): int" style="text;strokeColor=none;fillColor=none;align=left;verticalAlign=top;spacingLeft=4;spacingRight=4;overflow=hidden;rotatable=0;points=[[0,0.5],[1,0.5]];portConstraint=eastwest;whiteSpace=wrap;html=1;" vertex="1" parent="LWc6yBgg0FcKB93T4zAy-14">
          <mxGeometry y="50" width="360" height="40" as="geometry" />
        </mxCell>
        <mxCell id="LWc6yBgg0FcKB93T4zAy-18" value="AvailableAmt" style="swimlane;fontStyle=1;align=center;verticalAlign=top;childLayout=stackLayout;horizontal=1;startSize=26;horizontalStack=0;resizeParent=1;resizeParentMax=0;resizeLast=0;collapsible=1;marginBottom=0;whiteSpace=wrap;html=1;" vertex="1" parent="1">
          <mxGeometry x="310" y="110" width="240" height="90" as="geometry" />
        </mxCell>
        <mxCell id="LWc6yBgg0FcKB93T4zAy-19" value="- ecifNo: String&lt;br&gt;- availableAmt: decimal&lt;br&gt;" style="text;strokeColor=none;fillColor=none;align=left;verticalAlign=top;spacingLeft=4;spacingRight=4;overflow=hidden;rotatable=0;points=[[0,0.5],[1,0.5]];portConstraint=eastwest;whiteSpace=wrap;html=1;" vertex="1" parent="LWc6yBgg0FcKB93T4zAy-18">
          <mxGeometry y="26" width="240" height="34" as="geometry" />
        </mxCell>
        <mxCell id="LWc6yBgg0FcKB93T4zAy-20" value="" style="line;strokeWidth=1;fillColor=none;align=left;verticalAlign=middle;spacingTop=-1;spacingLeft=3;spacingRight=3;rotatable=0;labelPosition=right;points=[];portConstraint=eastwest;strokeColor=inherit;" vertex="1" parent="LWc6yBgg0FcKB93T4zAy-18">
          <mxGeometry y="60" width="240" height="8" as="geometry" />
        </mxCell>
        <mxCell id="LWc6yBgg0FcKB93T4zAy-21" value="+ getSharedCredit(String ecifNo): decimal&lt;br&gt;" style="text;strokeColor=none;fillColor=none;align=left;verticalAlign=top;spacingLeft=4;spacingRight=4;overflow=hidden;rotatable=0;points=[[0,0.5],[1,0.5]];portConstraint=eastwest;whiteSpace=wrap;html=1;" vertex="1" parent="LWc6yBgg0FcKB93T4zAy-18">
          <mxGeometry y="68" width="240" height="22" as="geometry" />
        </mxCell>
        <mxCell id="LWc6yBgg0FcKB93T4zAy-22" value="" style="endArrow=open;endFill=1;endSize=12;html=1;rounded=0;entryX=0.002;entryY=1.008;entryDx=0;entryDy=0;entryPerimeter=0;exitX=0.75;exitY=0;exitDx=0;exitDy=0;" edge="1" parent="1" source="LWc6yBgg0FcKB93T4zAy-1" target="LWc6yBgg0FcKB93T4zAy-21">
          <mxGeometry width="160" relative="1" as="geometry">
            <mxPoint x="260" y="250" as="sourcePoint" />
            <mxPoint x="175" y="208" as="targetPoint" />
          </mxGeometry>
        </mxCell>
        <mxCell id="LWc6yBgg0FcKB93T4zAy-23" value="CreditRatingModel" style="swimlane;fontStyle=1;align=center;verticalAlign=top;childLayout=stackLayout;horizontal=1;startSize=26;horizontalStack=0;resizeParent=1;resizeParentMax=0;resizeLast=0;collapsible=1;marginBottom=0;whiteSpace=wrap;html=1;" vertex="1" parent="1">
          <mxGeometry x="570" y="110" width="226" height="90" as="geometry" />
        </mxCell>
        <mxCell id="LWc6yBgg0FcKB93T4zAy-24" value="- ecifNo: String&lt;br&gt;- creditLevel: String" style="text;strokeColor=none;fillColor=none;align=left;verticalAlign=top;spacingLeft=4;spacingRight=4;overflow=hidden;rotatable=0;points=[[0,0.5],[1,0.5]];portConstraint=eastwest;whiteSpace=wrap;html=1;" vertex="1" parent="LWc6yBgg0FcKB93T4zAy-23">
          <mxGeometry y="26" width="226" height="34" as="geometry" />
        </mxCell>
        <mxCell id="LWc6yBgg0FcKB93T4zAy-25" value="" style="line;strokeWidth=1;fillColor=none;align=left;verticalAlign=middle;spacingTop=-1;spacingLeft=3;spacingRight=3;rotatable=0;labelPosition=right;points=[];portConstraint=eastwest;strokeColor=inherit;" vertex="1" parent="LWc6yBgg0FcKB93T4zAy-23">
          <mxGeometry y="60" width="226" height="8" as="geometry" />
        </mxCell>
        <mxCell id="LWc6yBgg0FcKB93T4zAy-26" value="+ getCreditLevel(String custId): String&lt;br&gt;" style="text;strokeColor=none;fillColor=none;align=left;verticalAlign=top;spacingLeft=4;spacingRight=4;overflow=hidden;rotatable=0;points=[[0,0.5],[1,0.5]];portConstraint=eastwest;whiteSpace=wrap;html=1;" vertex="1" parent="LWc6yBgg0FcKB93T4zAy-23">
          <mxGeometry y="68" width="226" height="22" as="geometry" />
        </mxCell>
        <mxCell id="LWc6yBgg0FcKB93T4zAy-27" value="" style="endArrow=open;endFill=1;endSize=12;html=1;rounded=0;entryX=0.002;entryY=1.008;entryDx=0;entryDy=0;entryPerimeter=0;exitX=0.75;exitY=0;exitDx=0;exitDy=0;" edge="1" parent="1">
          <mxGeometry width="160" relative="1" as="geometry">
            <mxPoint x="610" y="260" as="sourcePoint" />
            <mxPoint x="632" y="200" as="targetPoint" />
          </mxGeometry>
        </mxCell>
        <mxCell id="LWc6yBgg0FcKB93T4zAy-28" value="" style="endArrow=diamondThin;endFill=1;endSize=24;html=1;rounded=0;entryX=0;entryY=0.5;entryDx=0;entryDy=0;exitX=1;exitY=0.5;exitDx=0;exitDy=0;" edge="1" parent="1" source="LWc6yBgg0FcKB93T4zAy-4" target="LWc6yBgg0FcKB93T4zAy-17">
          <mxGeometry width="160" relative="1" as="geometry">
            <mxPoint x="400" y="430" as="sourcePoint" />
            <mxPoint x="353" y="320" as="targetPoint" />
          </mxGeometry>
        </mxCell>
        <mxCell id="LWc6yBgg0FcKB93T4zAy-29" value="creditRiskApprovalService" style="swimlane;fontStyle=1;align=center;verticalAlign=top;childLayout=stackLayout;horizontal=1;startSize=26;horizontalStack=0;resizeParent=1;resizeParentMax=0;resizeLast=0;collapsible=1;marginBottom=0;whiteSpace=wrap;html=1;" vertex="1" parent="1">
          <mxGeometry x="436" y="380" width="360" height="90" as="geometry" />
        </mxCell>
        <mxCell id="LWc6yBgg0FcKB93T4zAy-30" value="" style="line;strokeWidth=1;fillColor=none;align=left;verticalAlign=middle;spacingTop=-1;spacingLeft=3;spacingRight=3;rotatable=0;labelPosition=right;points=[];portConstraint=eastwest;strokeColor=inherit;" vertex="1" parent="LWc6yBgg0FcKB93T4zAy-29">
          <mxGeometry y="26" width="360" height="24" as="geometry" />
        </mxCell>
        <mxCell id="LWc6yBgg0FcKB93T4zAy-31" value="+ getCreditModelByEcifNo(String ecifNo): CreditRatingModel&lt;br&gt;+ evaluateCreditLevel(CreditRatingModel model): int" style="text;strokeColor=none;fillColor=none;align=left;verticalAlign=top;spacingLeft=4;spacingRight=4;overflow=hidden;rotatable=0;points=[[0,0.5],[1,0.5]];portConstraint=eastwest;whiteSpace=wrap;html=1;" vertex="1" parent="LWc6yBgg0FcKB93T4zAy-29">
          <mxGeometry y="50" width="360" height="40" as="geometry" />
        </mxCell>
        <mxCell id="LWc6yBgg0FcKB93T4zAy-32" value="&amp;lt;&amp;lt;interface&amp;gt;&amp;gt;&lt;br&gt;ManualApprovalService" style="swimlane;fontStyle=1;align=center;verticalAlign=top;childLayout=stackLayout;horizontal=1;startSize=40;horizontalStack=0;resizeParent=1;resizeParentMax=0;resizeLast=0;collapsible=1;marginBottom=0;whiteSpace=wrap;html=1;" vertex="1" parent="1">
          <mxGeometry x="40" y="420" width="300" height="100" as="geometry" />
        </mxCell>
        <mxCell id="LWc6yBgg0FcKB93T4zAy-33" value="" style="line;strokeWidth=1;fillColor=none;align=left;verticalAlign=middle;spacingTop=-1;spacingLeft=3;spacingRight=3;rotatable=0;labelPosition=right;points=[];portConstraint=eastwest;strokeColor=inherit;" vertex="1" parent="LWc6yBgg0FcKB93T4zAy-32">
          <mxGeometry y="40" width="300" height="20" as="geometry" />
        </mxCell>
        <mxCell id="LWc6yBgg0FcKB93T4zAy-34" value="+ getManualApprovalResult(String EcifNo): boolean&lt;br&gt;+ uploadApprovalInfo(): void" style="text;strokeColor=none;fillColor=none;align=left;verticalAlign=top;spacingLeft=4;spacingRight=4;overflow=hidden;rotatable=0;points=[[0,0.5],[1,0.5]];portConstraint=eastwest;whiteSpace=wrap;html=1;" vertex="1" parent="LWc6yBgg0FcKB93T4zAy-32">
          <mxGeometry y="60" width="300" height="40" as="geometry" />
        </mxCell>
        <mxCell id="LWc6yBgg0FcKB93T4zAy-35" value="" style="endArrow=block;dashed=1;endFill=0;endSize=12;html=1;rounded=0;entryX=1;entryY=0.5;entryDx=0;entryDy=0;exitX=0;exitY=0.5;exitDx=0;exitDy=0;" edge="1" parent="1" source="LWc6yBgg0FcKB93T4zAy-29" target="LWc6yBgg0FcKB93T4zAy-32">
          <mxGeometry width="160" relative="1" as="geometry">
            <mxPoint x="380" y="500" as="sourcePoint" />
            <mxPoint x="540" y="500" as="targetPoint" />
          </mxGeometry>
        </mxCell>
      </root>
    </mxGraphModel>
  </diagram>
</mxfile>
